<?xml version="1.0" encoding="UTF-8"?>
<svg id="_Ñëîé_1" data-name="Ñëîé 1" xmlns="http://www.w3.org/2000/svg" viewBox="0 0 2862.18 2328.84">
  <defs>
    <style>
      .cls-1 {
        fill: #442101;
        stroke-width: 0px;
      }
    </style>
  </defs>
  <path class="cls-1" d="m2838.37,1635.12c105.09-472.98-156.21-359.07-422.68-162.37-200.69,182.85-245.96,497.14-486.61,643.57-45.45,41.96-217.14,78.87-210.62,139.71,253.4,163.3,601.74,28.64,828.83-174.44,144.15-128.71,247.52-287.27,291.08-446.47Z"/>
  <path class="cls-1" d="m1613.88,2120.23c32.13,32.61,69.53,37.11,107.18,27.48,364.74-110.96,417.27-522.7,677.48-747.46,97.18-82.69,228.4-108.9,320.21-197.46-52.85-135.98-230.54-133.37-372.87-119.18-415.73,57-968.37,608.82-732.01,1036.62Z"/>
  <path class="cls-1" d="m1191.41,1025.21c-4.44-1.23-8.86-2.79-13.25-4.52,4.67,5.7,6.97,12.24,13.25,4.52Z"/>
  <path class="cls-1" d="m1917.03,693.72c105.08,473-156.2,359.06-422.68,162.37-200.68-182.85-245.97-497.14-486.62-643.58-45.45-41.95-217.14-78.87-210.62-139.7,253.41-163.3,601.73-28.65,828.84,174.44,144.14,128.71,247.51,287.27,291.08,446.48Z"/>
  <path class="cls-1" d="m692.54,208.61c32.14-32.61,69.54-37.11,107.19-27.47,364.75,110.94,417.26,522.7,677.49,747.45,97.15,82.67,228.38,108.93,320.2,197.46-52.84,135.99-230.53,133.39-372.86,119.19-415.75-57.01-968.36-608.79-732.02-1036.62Z"/>
  <path class="cls-1" d="m439.61,1119.73c-482.35,45.48-293.61,259.11-24.46,452.12,235.68,134.71,548.7,81.14,762.03,265.07,53.91,30.34,141.85,182.37,197.73,157.43,77.42-291.35-157.83-581.38-420.93-734.99-166.82-97.56-349.49-147.16-514.37-139.63Z"/>
  <path class="cls-1" d="m1277.86,2135.64c21.14-40.6,13.91-77.58-6.82-110.43-217.78-312.93-625.7-236.27-919.61-414.73-108.56-67.03-173.88-183.82-286.38-243.95-113.14,92.09-56,260.39,1.27,391.44,182.13,378.06,877.17,734.16,1211.54,377.67Z"/>
</svg>